<?xml version="1.0" encoding="utf-8"?>
<!-- Generator: Adobe Illustrator 28.3.0, SVG Export Plug-In . SVG Version: 6.00 Build 0)  -->
<svg version="1.1" id="Layer_1" xmlns="http://www.w3.org/2000/svg" xmlns:xlink="http://www.w3.org/1999/xlink" x="0px" y="0px"
	 viewBox="0 0 1200 1200" style="enable-background:new 0 0 1200 1200;" xml:space="preserve">
<style type="text/css">
	.st0{fill:#FFFFFF;}
</style>
<g>
	<path class="st0" d="M881.2,956.3H318.8c-41.4,0-75,33.6-75,75v75c0,10.3,8.4,18.8,18.8,18.8h675c10.3,0,18.8-8.4,18.8-18.8v-75
		C956.2,989.8,922.6,956.3,881.2,956.3z"/>
	<path class="st0" d="M281.3,456.7c0-153.9,124.5-279.6,278.1-281.3c13.6-20.2,36.5-58.6,53.8-75
		C396.8,80.9,207.4,235.3,206.3,456.7V769c0,5.6,2.4,10.9,6.8,14.4l68.2,56.8L281.3,456.7z"/>
	<path class="st0" d="M979.5,472.2L761.4,227.5l45-127.3c2.1-5.6,1.1-12-2.2-17.1c-8-12.4-30.1-6.7-43.3-7.9
		c-57-0.3-109.8,29.2-141,76.1l-40.3,61.5c-140.3-8.5-261.3,102.4-260.8,243.7v462.1h562.5v-50.6c0-8.2-5.2-15.4-12.9-17.8
		c-66.2-21.8-119.1-74.1-141.4-140.1l-27.9-82.9c-94.1,8.2-176.7-45.1-190.5-141.4c-2.5-24.3,33.7-29,37.2-4.7
		c7,53.3,47.9,96.3,100.4,106.2c13.5,4.7,136.2,1.6,152.8,2.4c6,0,12,3.2,15.6,8.2l18.2,27c20.6,32.3,71.8,32.7,92.8,0.6l58.4-84.2
		C998.5,520.2,996.7,491.7,979.5,472.2L979.5,472.2z"/>
</g>
</svg>
