<?xml version="1.0" encoding="UTF-8"?>
<svg width="1200pt" height="1200pt" version="1.1" viewBox="0 0 1200 1200" xmlns="http://www.w3.org/2000/svg">
 <g>
  <path d="m881.21 956.26h-562.45c-41.438 0-75 33.562-75 75v75c0 10.312 8.4375 18.75 18.75 18.75h674.95c10.312 0 18.75-8.4375 18.75-18.75v-75c0-41.438-33.562-75-75-75z"/>
  <path d="m281.26 456.66c0-153.94 124.5-279.56 278.06-281.26 13.594-20.203 36.516-58.641 53.812-75-216.37-19.547-405.71 134.9-406.87 356.26v312.37c0 5.625 2.4375 10.875 6.75 14.438l68.25 56.812z"/>
  <path d="m979.45 472.22-218.06-244.69 45-127.31c2.0625-5.625 1.125-12-2.25-17.062-8.0156-12.375-30.094-6.6562-43.312-7.875-57-0.32812-109.78 29.203-141 76.125 0 0-40.312 61.5-40.312 61.5-140.29-8.4844-261.32 102.38-260.81 243.74v462.1h562.45v-50.578c0-8.25-5.25-15.375-12.938-17.812-66.188-21.75-119.06-74.062-141.37-140.06l-27.938-82.875c-94.078 8.2031-176.72-45.094-190.45-141.37-2.5312-24.281 33.656-29.016 37.219-4.7344 6.9844 53.344 47.859 96.281 100.36 106.17 13.453 4.6875 136.18 1.6406 152.81 2.4375 6 0.046875 12 3.2344 15.562 8.25l18.188 27c20.625 32.344 71.812 32.719 92.766 0.60938 0 0 58.359-84.234 58.359-84.234 14.812-21.375 12.938-49.875-4.3125-69.375z"/>
 </g>
</svg>
